HIERARCHY
ROOT Hips
{
	OFFSET 0.000000 0.000000 0.000000
	CHANNELS 6 Xposition Yposition Zposition Xrotation Yrotation Zrotation
	JOINT LeftUpLeg_virtual
	{
		OFFSET 0.000000 0.000000 0.000000
		CHANNELS 3 Xrotation Yrotation Zrotation
		JOINT LeftUpLeg
		{
			OFFSET 13.026900 -6.336304 -1.092800
			CHANNELS 3 Xrotation Yrotation Zrotation
			JOINT LeftLeg
			{
				OFFSET 0.524474 -46.096886 9.782700
				CHANNELS 3 Xrotation Yrotation Zrotation
				JOINT LeftFoot
				{
					OFFSET -0.524474 -53.427422 -12.948200
					CHANNELS 3 Xrotation Yrotation Zrotation
					JOINT LeftToeBase
					{
						OFFSET 0.192200 -14.009700 16.364100
						CHANNELS 3 Xrotation Yrotation Zrotation
						JOINT LeftToe_End
						{
							OFFSET -1.784700 -0.561700 9.474800
							CHANNELS 3 Xrotation Yrotation Zrotation
							End Site
							{
								OFFSET 0 0 0
							}
						}
					}
				}
			}
		}
	}
	JOINT RightUpLeg_virtual
	{
		OFFSET 0.000000 0.000000 0.000000
		CHANNELS 3 Xrotation Yrotation Zrotation
		JOINT RightUpLeg
		{
			OFFSET -12.883000 -6.336304 -1.092800
			CHANNELS 3 Xrotation Yrotation Zrotation
			JOINT RightLeg
			{
				OFFSET -0.524587 -46.096825 9.782800
				CHANNELS 3 Xrotation Yrotation Zrotation
				JOINT RightFoot
				{
					OFFSET 0.524587 -53.427383 -12.948300
					CHANNELS 3 Xrotation Yrotation Zrotation
					JOINT RightToeBase
					{
						OFFSET -0.192200 -14.009700 16.364100
						CHANNELS 3 Xrotation Yrotation Zrotation
						JOINT RightToe_End
						{
							OFFSET 1.784700 -0.561700 9.474800
							CHANNELS 3 Xrotation Yrotation Zrotation
							End Site
							{
								OFFSET 0 0 0
							}
						}
					}
				}
			}
		}
	}
	JOINT Spine_virtual
	{
		OFFSET 0.000000 0.000000 0.000000
		CHANNELS 3 Xrotation Yrotation Zrotation
		JOINT Spine
		{
			OFFSET 0.072000 7.257294 -0.789700
			CHANNELS 3 Xrotation Yrotation Zrotation
			JOINT Spine1
			{
				OFFSET 0.000000 12.508769 -0.658067
				CHANNELS 3 Xrotation Yrotation Zrotation
				JOINT Spine1_split
				{
					OFFSET 0.000000 12.508769 -0.658067
					CHANNELS 3 Xrotation Yrotation Zrotation
					JOINT Spine2
					{
						OFFSET 0.000000 12.508769 -0.658067
						CHANNELS 3 Xrotation Yrotation Zrotation
						JOINT Neck_virtual
						{
							OFFSET 0.000000 0.000000 0.000000
							CHANNELS 3 Xrotation Yrotation Zrotation
							JOINT Neck
							{
								OFFSET 0.000000 14.033295 7.520400
								CHANNELS 3 Xrotation Yrotation Zrotation
								JOINT Head
								{
									OFFSET 0.000000 8.198502 5.703100
									CHANNELS 3 Xrotation Yrotation Zrotation
									JOINT HeadTop_End
									{
										OFFSET 0.000000 17.760803 13.332701
										CHANNELS 3 Xrotation Yrotation Zrotation
										End Site
										{
											OFFSET 0 0 0
										}
									}
								}
							}
						}
						JOINT LeftShoulder_virtual
						{
							OFFSET 0.000000 0.000000 0.000000
							CHANNELS 3 Xrotation Yrotation Zrotation
							JOINT LeftShoulder
							{
								OFFSET 6.292450 5.785301 -0.669000
								CHANNELS 3 Xrotation Yrotation Zrotation
								JOINT LeftShoulder_split
								{
									OFFSET 6.292450 5.785301 -0.669000
									CHANNELS 3 Xrotation Yrotation Zrotation
									JOINT LeftArm
									{
										OFFSET 13.907140 -6.093903 1.965100
										CHANNELS 3 Xrotation Yrotation Zrotation
										JOINT LeftForeArm
										{
											OFFSET 34.140198 0.000000 0.000000
											CHANNELS 3 Xrotation Yrotation Zrotation
											JOINT LeftHand
											{
												OFFSET 40.960209 0.000000 0.000000
												CHANNELS 3 Xrotation Yrotation Zrotation
												End Site
												{
													OFFSET 0 0 0
												}
											}
										}
									}
								}
							}
						}
						JOINT RightShoulder_virtual
						{
							OFFSET 0.000000 0.000000 0.000000
							CHANNELS 3 Xrotation Yrotation Zrotation
							JOINT RightShoulder
							{
								OFFSET -6.292450 5.785301 -0.669000
								CHANNELS 3 Xrotation Yrotation Zrotation
								JOINT RightShoulder_split
								{
									OFFSET -6.292450 5.785301 -0.669000
									CHANNELS 3 Xrotation Yrotation Zrotation
									JOINT RightArm
									{
										OFFSET -13.907140 -6.093903 1.965100
										CHANNELS 3 Xrotation Yrotation Zrotation
										JOINT RightForeArm
										{
											OFFSET -34.140198 0.000000 0.000000
											CHANNELS 3 Xrotation Yrotation Zrotation
											JOINT RightHand
											{
												OFFSET -40.960209 0.000000 0.000000
												CHANNELS 3 Xrotation Yrotation Zrotation
												End Site
												{
													OFFSET 0 0 0
												}
											}
										}
									}
								}
							}
						}
					}
				}
			}
		}
	}
}
MOTION
Frames: 10
Frame Time: 0.03333333
8.172430 100.902321 -1.601292 0.000000 0.000000 0.000000 172.715840 -79.851578 -177.134222 -3.397776 17.238482 10.441917 36.945849 12.751267 -6.299742 -20.290858 18.574215 -18.510952 -2.986217 -0.382519 0.202151 0.000000 0.000000 0.000000 167.836012 -81.131815 178.355596 -44.002917 13.401253 -12.860354 36.700317 0.304960 -6.295247 -5.555886 17.544256 17.729090 -0.509924 1.531887 0.558541 0.000000 0.000000 0.000000 169.751115 -81.787328 -179.755006 25.627635 -11.963584 8.874485 22.565591 -2.558912 0.630818 0.777042 -0.761073 1.343299 0.000000 0.000000 0.000000 21.898611 -2.851002 0.704465 11.110105 -3.379612 -5.393332 -26.762703 16.731073 -9.586248 0.000000 0.000000 0.000000 23.716819 -3.078824 0.973824 -0.632750 -11.170745 10.657295 -1.746469 -2.732939 0.935606 16.021537 18.587639 -75.680518 11.083905 -81.108128 9.585055 0.000000 0.000000 0.000000 22.419222 -2.930958 1.213362 6.996116 17.011049 13.249854 4.542699 3.832398 4.498620 -61.691027 52.080411 52.194301 178.028730 66.953442 -176.914986 0.000000 0.000000 0.000000 
8.161426 100.052689 -2.275776 0.000000 0.000000 0.000000 -178.025192 -82.291970 -167.246922 -4.435972 18.486175 11.876359 38.563863 10.852723 -6.128463 -20.716164 15.538172 -18.816584 -3.914626 -0.361563 0.368101 0.000000 0.000000 0.000000 178.013636 -84.399787 -171.020082 -43.560795 10.954546 -14.647691 39.890029 -0.143481 -6.240441 -6.782811 14.883372 17.044054 0.261310 1.486150 0.434808 0.000000 0.000000 0.000000 -179.613690 -83.849383 -168.959223 24.513247 -12.681448 8.293670 22.346502 -2.853980 0.836569 1.491564 -0.340486 1.329368 0.000000 0.000000 0.000000 21.527604 -3.192624 0.886988 10.144456 -3.090004 -7.042977 -23.247896 18.732666 -11.110114 0.000000 0.000000 0.000000 23.424359 -3.339383 1.243272 -0.591702 -9.846740 9.869040 -1.689454 -3.420868 0.788681 8.032392 27.147920 -70.854265 0.316972 -85.843334 -0.189197 0.000000 0.000000 0.000000 22.073775 -3.249188 1.350088 7.265290 18.243837 13.382367 3.931120 3.893305 4.583448 -56.846756 46.135076 46.444197 177.642729 66.341504 -176.730817 0.000000 0.000000 0.000000 
7.997025 99.419899 -3.246231 0.000000 0.000000 0.000000 -154.353942 -85.303346 -143.104662 -6.101607 18.973210 13.768684 39.791009 8.605658 -5.472095 -20.139298 11.867338 -19.670147 -4.382605 -0.299350 0.456031 0.000000 0.000000 0.000000 -132.043717 -87.871367 -120.810515 -42.819894 8.534857 -16.660889 43.745750 -0.660723 -5.945096 -7.420073 11.923821 16.822802 0.713929 1.392207 0.214936 0.000000 0.000000 0.000000 -154.763139 -86.462654 -144.298538 23.007897 -12.797860 7.877598 21.767466 -3.103705 1.092927 1.797168 0.309873 1.063196 0.000000 0.000000 0.000000 21.157785 -3.506928 1.110560 8.573270 -2.824373 -7.323921 -19.666118 20.352512 -12.468795 0.000000 0.000000 0.000000 22.913941 -3.523419 1.512610 -0.506184 -8.789363 9.461610 -1.025242 -3.144321 0.288330 0.668177 30.264425 -66.877811 -158.370613 -86.884664 -157.952714 0.000000 0.000000 0.000000 21.665556 -3.529750 1.463625 7.551395 19.478537 13.192271 2.974923 3.946004 4.166403 -54.987592 41.117759 44.080545 178.132099 66.420721 -177.462795 0.000000 0.000000 0.000000 
7.808877 98.990211 -4.133770 0.000000 0.000000 0.000000 -86.623055 -86.282324 -75.266793 -8.162519 18.613203 15.702380 40.453800 6.717759 -4.501364 -19.449992 8.168680 -20.178836 -3.899659 -0.186245 0.322572 0.000000 0.000000 0.000000 -43.591364 -85.203024 -32.292619 -41.526457 6.617776 -18.421795 47.573056 -1.137734 -5.602087 -7.758338 8.869525 17.100012 0.804740 1.252151 0.038210 0.000000 0.000000 0.000000 -83.764463 -87.119548 -73.733811 21.287809 -12.235899 7.494002 20.862260 -3.201852 1.175904 1.373728 0.811234 0.535472 0.000000 0.000000 0.000000 20.716312 -3.712488 1.112965 6.858655 -2.581885 -6.281984 -16.074978 21.540692 -13.244402 0.000000 0.000000 0.000000 22.195943 -3.613835 1.518412 -0.393696 -8.171225 9.217922 -0.524541 -2.613364 -0.511923 -3.213799 28.016172 -65.505824 -172.605314 -78.655639 -171.600293 0.000000 0.000000 0.000000 21.216113 -3.695670 1.376259 7.739059 20.498952 12.690996 1.842927 4.361883 3.810782 -54.703381 36.834739 43.819092 179.209793 67.296126 -178.894170 0.000000 0.000000 0.000000 
7.556249 98.634621 -4.848621 0.000000 0.000000 0.000000 -43.548241 -82.491979 -32.412157 -10.712809 17.463414 17.494684 40.951837 5.337403 -3.354297 -18.670056 4.595983 -20.336410 -2.665562 -0.040623 -0.015841 0.000000 0.000000 0.000000 -28.439752 -79.968237 -17.287603 -39.626476 5.269510 -19.727745 50.659503 -1.623523 -5.348014 -8.054792 5.812869 17.643639 0.761371 1.090855 0.014780 0.000000 0.000000 0.000000 -43.448070 -83.903779 -33.799751 19.581956 -11.008377 6.964653 19.674479 -3.066835 0.963064 0.557305 1.252288 0.025278 0.000000 0.000000 0.000000 20.072498 -3.681418 0.760564 5.380170 -2.252374 -4.277210 -12.491839 22.547498 -13.208407 0.000000 0.000000 0.000000 21.201035 -3.527138 1.141649 -0.299961 -7.879248 8.897873 -0.527100 -2.282365 -1.437259 -3.162015 22.054758 -66.464441 -176.808094 -70.913947 -175.620542 0.000000 0.000000 0.000000 20.650092 -3.621531 0.997161 7.841198 20.735802 11.601692 0.622618 5.829855 3.810567 -54.727290 33.206727 44.253926 -179.398907 68.873927 179.261935 0.000000 0.000000 0.000000 
7.259789 98.121323 -5.185753 0.000000 0.000000 0.000000 -29.284088 -77.227064 -18.616398 -13.778885 15.610978 18.870315 41.811532 4.269080 -2.098181 -17.720835 1.146315 -20.261507 -1.893919 0.047467 -0.222400 0.000000 0.000000 0.000000 -22.664612 -74.636271 -11.797670 -37.289332 4.295739 -20.687473 52.776199 -2.095540 -5.214518 -8.640465 2.921990 18.246314 1.001504 0.926599 0.177960 0.000000 0.000000 0.000000 -30.860803 -79.599448 -21.442529 17.967209 -9.137206 6.202656 18.172797 -2.634187 0.495763 -0.213602 0.906953 0.007777 0.000000 0.000000 0.000000 18.970731 -3.329456 0.139363 4.318141 -1.752744 -1.963719 -8.967384 23.513124 -12.339044 0.000000 0.000000 0.000000 19.790702 -3.201995 0.414690 -0.266606 -7.518478 8.195268 -1.125721 -2.100207 -2.413015 -0.860965 14.042025 -67.757061 -179.345441 -65.435897 -178.221519 0.000000 0.000000 0.000000 19.748327 -3.243657 0.379026 7.758031 20.115378 10.075595 -0.246302 7.732182 4.170576 -54.913672 30.277819 44.999339 -177.949814 70.694261 177.296739 0.000000 0.000000 0.000000 
7.037131 97.382576 -5.171795 0.000000 0.000000 0.000000 -21.770145 -71.718940 -11.804549 -17.322239 13.316524 19.601072 43.429478 3.419376 -0.879750 -16.830100 -2.060487 -19.556092 -2.220546 0.038617 -0.138389 0.000000 0.000000 0.000000 -19.067846 -69.515172 -8.571201 -34.843694 3.334338 -21.689144 54.074533 -2.392542 -5.159259 -9.536125 0.417153 18.942927 1.476459 0.801313 0.448922 0.000000 0.000000 0.000000 -24.390580 -74.988640 -15.102218 16.475513 -6.767897 5.161270 16.407043 -1.980991 -0.013242 -0.443013 0.352842 0.522406 0.000000 0.000000 0.000000 17.331745 -2.659001 -0.554293 3.616431 -1.032429 0.106481 -5.919902 24.399729 -10.734242 0.000000 0.000000 0.000000 18.071074 -2.638487 -0.397107 -0.309456 -6.929235 6.831640 -2.250538 -2.077903 -3.561979 1.931797 5.943112 -67.946059 179.002196 -62.326419 -179.907374 0.000000 0.000000 0.000000 18.451934 -2.514006 -0.233986 7.369466 18.744296 8.284322 -0.113843 9.894771 4.707503 -55.181457 27.966013 45.926749 -176.814377 72.147732 175.671017 0.000000 0.000000 0.000000 
6.744834 96.489296 -5.052509 0.000000 0.000000 0.000000 -16.793956 -66.416288 -7.678324 -21.271337 10.838210 19.719396 45.839684 2.786992 0.149326 -15.910101 -4.845450 -18.210729 -3.175101 -0.023503 0.066391 0.000000 0.000000 0.000000 -16.298781 -64.687601 -6.246081 -32.597027 2.138050 -22.889776 54.779008 -2.454883 -5.128802 -10.517637 -1.576985 19.967964 1.934999 0.713366 0.690162 0.000000 0.000000 0.000000 -19.539370 -70.248140 -10.467886 15.078930 -4.029730 3.917448 14.467425 -1.158532 -0.396349 -0.277188 -0.319354 1.237043 0.000000 0.000000 0.000000 15.140117 -1.705586 -1.073333 3.183427 -0.253827 1.686936 -3.475777 24.956709 -8.756787 0.000000 0.000000 0.000000 16.121775 -1.835131 -1.068530 -0.414681 -6.041664 4.804991 -3.809396 -2.252378 -4.607839 3.141352 -0.280770 -66.830218 178.008336 -61.387418 179.461977 0.000000 0.000000 0.000000 16.732124 -1.422979 -0.688311 6.712759 17.052283 6.509673 0.990652 11.380702 5.095228 -55.569418 26.462123 47.280697 -175.958732 72.798519 174.385699 0.000000 0.000000 0.000000 
6.363972 95.550407 -4.768490 0.000000 0.000000 0.000000 -13.119302 -61.776192 -4.922760 -25.417132 8.340274 19.406562 48.877954 2.373827 0.854801 -14.839754 -6.894625 -16.637810 -3.748248 -0.060918 0.067570 0.000000 0.000000 0.000000 -13.909928 -60.309198 -4.438177 -30.616364 0.601840 -24.273271 55.101643 -2.260405 -5.090099 -11.621195 -3.065176 21.450926 1.912988 0.629438 0.777655 0.000000 0.000000 0.000000 -15.199611 -65.695546 -6.634679 13.675374 -1.098689 2.596258 12.370032 -0.264021 -0.605657 0.524508 -1.235154 1.933712 0.000000 0.000000 0.000000 12.460242 -0.600481 -1.317473 2.796092 0.449306 2.627636 -1.721075 24.819524 -6.757370 0.000000 0.000000 0.000000 13.986486 -0.898033 -1.443305 -0.498185 -4.921115 2.186321 -5.615029 -2.560364 -5.794126 1.229504 -4.092345 -64.707416 177.795999 -61.706702 -179.966291 0.000000 0.000000 0.000000 14.632272 -0.155421 -0.892313 5.859283 15.379972 5.122442 2.626521 11.652685 4.571873 -56.164294 25.642613 49.537142 -175.599219 72.524055 173.641536 0.000000 0.000000 0.000000 
5.858294 94.652039 -4.260105 0.000000 0.000000 0.000000 -10.379820 -58.026890 -3.052222 -29.294521 6.071828 18.865560 52.020886 2.202352 1.254589 -13.655360 -8.098401 -15.257292 -3.507298 -0.035711 -0.202747 0.000000 0.000000 0.000000 -11.689618 -56.658721 -2.981524 -28.909957 -1.258833 -25.605411 55.293062 -1.918465 -5.036053 -12.981216 -4.213394 23.149313 1.166362 0.529402 0.694136 0.000000 0.000000 0.000000 -11.458864 -61.709530 -3.755850 12.187260 1.794244 1.354618 10.166031 0.613729 -0.712769 1.449442 -1.932820 2.494942 0.000000 0.000000 0.000000 9.570634 0.506566 -1.340632 2.350629 1.089882 2.971104 -0.402457 24.421944 -5.145239 0.000000 0.000000 0.000000 11.730268 0.064805 -1.541516 -0.502814 -3.641235 -0.612217 -6.718003 -2.528762 -7.241702 -4.509621 -5.740777 -62.217470 178.377412 -62.152092 -178.374447 0.000000 0.000000 0.000000 12.284002 1.061494 -0.936681 5.007197 13.748846 4.118207 4.374793 11.149599 3.453921 -56.640423 25.390783 52.821821 -175.547295 71.587923 173.297732 0.000000 0.000000 0.000000 
